<svg width="532" height="278" viewBox="0 0 532 278" fill="none" xmlns="http://www.w3.org/2000/svg">
<g filter="url(#filter0_d_353_18)">
<g clip-path="url(#clip0_353_18)">
<path d="M93.9069 37.6357L25.7899 77.2531C15.7337 83.1019 9.54688 93.8572 9.54688 105.491V145.351V185.211C9.54688 196.845 15.7338 207.6 25.7899 213.449L59.9535 233.319L93.9069 253.066C104.059 258.971 116.601 258.971 126.753 253.066L194.87 213.449C204.926 207.6 211.113 196.845 211.113 185.211V105.491C211.113 93.8572 204.926 83.1019 194.87 77.2531L126.753 37.6357C116.601 31.7308 104.059 31.7308 93.9069 37.6357Z" fill="black" stroke="white" stroke-width="10.8675"/>
<path d="M93.9069 37.6357L25.7899 77.2531C15.7337 83.1019 9.54688 93.8572 9.54688 105.491V145.351V185.211C9.54688 196.845 15.7338 207.6 25.7899 213.449L59.9535 233.319L93.9069 253.066C104.059 258.971 116.601 258.971 126.753 253.066L194.87 213.449C204.926 207.6 211.113 196.845 211.113 185.211V105.491C211.113 93.8572 204.926 83.1019 194.87 77.2531L126.753 37.6357C116.601 31.7308 104.059 31.7308 93.9069 37.6357Z" stroke="white" stroke-width="10.8675"/>
<path d="M176.696 152.591C176.222 150.66 174.273 149.479 172.342 149.952L140.875 157.673C138.944 158.146 137.763 160.096 138.237 162.027C138.71 163.958 140.66 165.139 142.591 164.665L170.561 157.803L177.424 185.774C177.897 187.705 179.847 188.886 181.778 188.412C183.709 187.939 184.89 185.989 184.416 184.058L176.696 152.591ZM110.35 82.799L112.24 85.8629L117.338 82.718L112.169 79.6922L110.35 82.799ZM57.1 115.649L55.21 112.585L53.5 113.64V115.649H57.1ZM57.1 171.449H53.5V172.433L54.0007 173.281L57.1 171.449ZM108.46 79.7351L55.21 112.585L58.99 118.713L112.24 85.8629L108.46 79.7351ZM113.156 259.48L176.279 155.315L170.121 151.583L106.998 255.748L113.156 259.48ZM65.4814 60.7058L108.531 85.9058L112.169 79.6922L69.1186 54.4922L65.4814 60.7058ZM53.5 115.649V171.449H60.7V115.649H53.5ZM54.0007 173.281L104.918 259.434L111.117 255.771L60.1993 169.617L54.0007 173.281ZM106.998 255.748C107.939 254.196 110.194 254.209 111.117 255.771L104.918 259.434C106.765 262.558 111.275 262.582 113.156 259.48L106.998 255.748Z" fill="white"/>
<path d="M97.6636 82.0686C97.5449 87.0491 103.064 91.2205 109.99 91.3856C116.916 91.5506 122.627 87.647 122.746 82.6665C122.865 77.6859 117.346 73.5146 110.42 73.3495C103.493 73.1844 97.7823 77.0881 97.6636 82.0686Z" fill="white"/>
<path d="M49.9709 163.686C54.067 160.85 60.5845 163.169 64.5283 168.866C68.472 174.562 68.3486 181.479 64.2525 184.314C60.1564 187.15 53.6389 184.831 49.6952 179.135C45.7514 173.439 45.8749 166.522 49.9709 163.686Z" fill="white"/>
<path fill-rule="evenodd" clip-rule="evenodd" d="M110.368 137.644L21.3707 85.8828L16.6719 93.9618L105.695 145.738V255.899H115.041V145.738L204.064 93.9618L199.365 85.8828L110.368 137.644Z" fill="white"/>
<path fill-rule="evenodd" clip-rule="evenodd" d="M60.7031 51.1499V45.1244C60.7031 43.136 62.315 41.5244 64.3031 41.5244C66.2915 41.5244 67.9031 43.136 67.9031 45.1244V51.1499H60.7031ZM64.3031 37.7366C62.315 37.7366 60.7031 36.125 60.7034 34.1366V22.0857C60.7034 20.0975 62.315 18.4857 64.3034 18.4857C66.2915 18.4857 67.9034 20.0975 67.9034 22.0858V34.1366C67.9031 36.125 66.2915 37.7366 64.3031 37.7366ZM64.3034 14.6981C62.315 14.6981 60.7034 13.0863 60.7034 11.0981V5.07265C60.7034 3.08443 62.315 1.47265 64.3034 1.47266C66.2915 1.47267 67.9034 3.08443 67.9034 5.07268V11.0982C67.9034 13.0864 66.2915 14.6981 64.3034 14.6981Z" fill="white"/>
</g>
<g clip-path="url(#clip1_353_18)">
<path d="M528 122V200H509.066L480.826 152.754V200H462V122H480.934L509.174 169.58V122H528Z" fill="white"/>
<path d="M402.2 158.16C399.094 156.63 396.58 154.555 394.658 151.933C392.81 149.238 391.885 145.924 391.885 141.992C391.885 138.35 392.884 135.036 394.88 132.05C396.876 128.992 399.944 126.552 404.085 124.731C408.226 122.91 413.512 122 419.945 122C426.303 122 431.552 122.947 435.693 124.84C439.907 126.661 443.013 129.101 445.009 132.16C447.079 135.146 448.115 138.423 448.115 141.992C448.115 145.852 447.116 149.129 445.12 151.824C443.198 154.518 440.758 156.63 437.8 158.16C441.645 159.908 444.64 162.347 446.784 165.479C448.928 168.611 450 172.325 450 176.622C450 181.647 448.632 185.907 445.897 189.403C443.235 192.899 439.612 195.558 435.028 197.378C430.517 199.126 425.49 200 419.945 200C414.399 200 409.372 199.126 404.861 197.378C400.351 195.558 396.728 192.899 393.992 189.403C391.331 185.907 390 181.647 390 176.622C390 172.325 391.035 168.611 393.106 165.479C395.249 162.347 398.281 159.908 402.2 158.16ZM428.817 144.832C428.817 142.064 428.003 140.062 426.377 138.824C424.75 137.513 422.606 136.857 419.945 136.857C417.283 136.857 415.139 137.513 413.512 138.824C411.959 140.062 411.183 142.064 411.183 144.832C411.183 147.527 411.997 149.639 413.623 151.168C415.25 152.625 417.357 153.353 419.945 153.353C422.533 153.353 424.64 152.625 426.266 151.168C427.967 149.639 428.817 147.527 428.817 144.832ZM419.945 166.025C417.8 166.025 415.952 166.426 414.399 167.227C412.847 167.955 411.664 169.048 410.85 170.504C410.037 171.888 409.63 173.599 409.63 175.639C409.63 178.406 410.444 180.7 412.07 182.521C413.771 184.269 416.396 185.143 419.945 185.143C423.494 185.143 426.118 184.233 427.819 182.412C429.52 180.591 430.37 178.333 430.37 175.639C430.37 173.599 429.963 171.888 429.15 170.504C428.336 169.048 427.153 167.955 425.601 167.227C424.048 166.426 422.162 166.025 419.945 166.025Z" fill="white"/>
<path d="M353.889 122C359.666 122 364.815 123.177 369.334 125.53C373.852 127.884 377.407 131.12 380 135.239C382.667 139.358 384 144.139 384 149.581C384 153.48 383.185 157.488 381.556 161.607C380 165.726 377.519 170.065 374.111 174.625L357.643 196.618C356.05 198.747 353.546 200 350.886 200C343.889 200 339.929 191.976 344.186 186.422L356.444 170.433L359.933 166.341C363.347 162.338 367.902 165.029 364 168.557C359.852 172.308 354.852 174.184 349 174.184C344.482 174.184 340.333 173.228 336.556 171.315C332.778 169.33 329.741 166.461 327.445 162.71C325.148 158.959 324 154.436 324 149.14C324 143.624 325.37 138.843 328.111 134.798C330.852 130.679 334.481 127.516 339 125.31C343.519 123.103 348.481 122 353.889 122ZM364.444 149.03C364.444 146.823 364 144.948 363.111 143.403C362.296 141.785 361.074 140.535 359.444 139.652C357.889 138.769 356.037 138.328 353.889 138.328C351.741 138.328 349.889 138.769 348.334 139.652C346.778 140.535 345.593 141.785 344.778 143.403C343.963 144.948 343.556 146.823 343.556 149.03C343.556 151.163 343.963 153.038 344.778 154.656C345.593 156.201 346.778 157.414 348.334 158.297C349.889 159.18 351.741 159.621 353.889 159.621C356.037 159.621 357.889 159.18 359.444 158.297C361.074 157.414 362.296 156.201 363.111 154.656C364 153.038 364.444 151.163 364.444 149.03Z" fill="#DA7C70"/>
<path d="M353.895 122.391C359.615 122.391 364.711 123.556 369.185 125.886C373.658 128.216 377.178 131.42 379.745 135.497C382.385 139.575 383.705 144.308 383.705 149.696C383.705 153.555 382.898 157.524 381.285 161.601C379.745 165.679 377.288 169.975 373.914 174.49L357.612 196.263C356.033 198.37 353.555 199.611 350.922 199.611C343.994 199.611 340.074 191.667 344.289 186.169L356.424 170.339L359.879 166.288C363.258 162.325 367.767 164.989 363.905 168.482C359.798 172.196 354.848 174.053 349.055 174.053C344.581 174.053 340.475 173.106 336.735 171.213C332.994 169.247 329.988 166.407 327.714 162.694C325.441 158.98 324.305 154.502 324.305 149.259C324.305 143.798 325.661 139.065 328.374 135.06C331.088 130.983 334.681 127.852 339.155 125.667C343.628 123.483 348.541 122.391 353.895 122.391ZM364.344 149.15C364.344 146.966 363.905 145.109 363.024 143.58C362.218 141.978 361.008 140.74 359.394 139.866C357.855 138.992 356.021 138.556 353.895 138.556C351.768 138.556 349.935 138.992 348.395 139.866C346.854 140.74 345.681 141.978 344.874 143.58C344.068 145.109 343.665 146.966 343.665 149.15C343.665 151.262 344.068 153.118 344.874 154.72C345.681 156.249 346.854 157.451 348.395 158.325C349.935 159.198 351.768 159.635 353.895 159.635C356.021 159.635 357.855 159.198 359.394 158.325C361.008 157.451 362.218 156.249 363.024 154.72C363.905 153.118 364.344 151.262 364.344 149.15Z" fill="#FF6E5A"/>
<path d="M312 122V200H293.066L264.826 152.754V200H246V122H264.934L293.174 169.58V122H312Z" fill="white"/>
</g>
</g>
<defs>
<filter id="filter0_d_353_18" x="0" y="0" width="532" height="277.1" filterUnits="userSpaceOnUse" color-interpolation-filters="sRGB">
<feFlood flood-opacity="0" result="BackgroundImageFix"/>
<feColorMatrix in="SourceAlpha" type="matrix" values="0 0 0 0 0 0 0 0 0 0 0 0 0 0 0 0 0 0 127 0" result="hardAlpha"/>
<feOffset dy="4"/>
<feGaussianBlur stdDeviation="2"/>
<feComposite in2="hardAlpha" operator="out"/>
<feColorMatrix type="matrix" values="0 0 0 0 1 0 0 0 0 1 0 0 0 0 1 0 0 0 0.25 0"/>
<feBlend mode="normal" in2="BackgroundImageFix" result="effect1_dropShadow_353_18"/>
<feBlend mode="normal" in="SourceGraphic" in2="effect1_dropShadow_353_18" result="shape"/>
</filter>
<clipPath id="clip0_353_18">
<rect width="212.7" height="269.1" fill="white" transform="translate(4)"/>
</clipPath>
<clipPath id="clip1_353_18">
<rect width="282" height="78" fill="white" transform="translate(246 122)"/>
</clipPath>
</defs>
</svg>
